<svg width="1000" height="1000" viewBox="0 0 1000 1000" fill="none" xmlns="http://www.w3.org/2000/svg">
<g clip-path="url(#clip0_234_32639)">
<path d="M854.276 438.385C851.365 426.962 846.892 415.994 840.983 405.791C836.629 398.283 831.533 391.23 825.769 384.738C822.158 380.639 818.287 376.777 814.181 373.173C798.805 359.568 780.41 349.811 760.515 344.708C749.856 341.973 738.894 340.594 727.889 340.604H466.873L434.247 363.89L421.196 373.197L401.62 387.152L375.518 405.791L368.993 410.439L359.869 416.945L336.366 433.725L329.84 438.385L303.739 457.012L284.163 470.979L271.112 480.286L254.799 491.923V340.604H140.604V601.354H254.799L271.112 589.487L299.655 568.76L303.739 565.814L336.366 542.105L344.523 536.19L359.869 525.036L368.993 531.531L375.518 536.19L401.62 554.793L421.196 568.76L434.247 578.067L466.873 601.354H727.889C750.796 601.382 773.306 595.368 793.142 583.922C817.836 569.657 837.179 547.711 848.217 521.434C859.256 495.158 861.384 465.995 854.276 438.397V438.385ZM727.889 503.572H479.102L466.873 494.676L434.247 470.979L466.873 447.27L479.102 438.385H727.889C736.542 438.385 744.841 441.819 750.959 447.931C757.078 454.044 760.515 462.334 760.515 470.979C760.515 479.623 757.078 487.913 750.959 494.026C744.841 500.138 736.542 503.572 727.889 503.572Z" fill="white" stroke="white" stroke-miterlimit="10"/>
<path d="M141.196 643.001H151.939V655.978L170.814 643.001H186.402L169.171 654.832L186.402 666.662H170.814L161.364 660.167L151.915 666.662H141.172L141.196 643.001Z" fill="white"/>
<path d="M219.694 642.663C222.924 642.663 226.023 643.945 228.307 646.227C230.591 648.509 231.875 651.604 231.875 654.832C231.875 658.059 230.591 661.154 228.307 663.436C226.023 665.718 222.924 667 219.694 667H194.897C191.667 667 188.569 665.718 186.284 663.436C184 661.154 182.717 658.059 182.717 654.832C182.717 651.604 184 648.509 186.284 646.227C188.569 643.945 191.667 642.663 194.897 642.663H219.694ZM197.097 651.452C196.199 651.452 195.339 651.808 194.704 652.442C194.07 653.075 193.713 653.935 193.713 654.832C193.713 655.728 194.07 656.588 194.704 657.222C195.339 657.856 196.199 658.212 197.097 658.212H217.495C218.392 658.212 219.253 657.856 219.887 657.222C220.522 656.588 220.878 655.728 220.878 654.832C220.878 653.935 220.522 653.075 219.887 652.442C219.253 651.808 218.392 651.452 217.495 651.452H197.097Z" fill="white"/>
<path d="M240.636 666.662H228.552L247.826 643.001H259.91L279.184 666.662H267.1L253.856 650.437L240.636 666.662Z" fill="white"/>
<path d="M291.944 666.662H279.86L299.122 643.001H311.206L330.48 666.662H318.396L305.164 650.437L291.944 666.662Z" fill="white"/>
<path d="M362.527 643.001L381.789 666.662H369.705L366.95 663.282H346.033L343.277 666.662H331.193L350.455 643.001H362.527ZM351.507 656.522H361.44L356.473 650.486L351.507 656.522Z" fill="white"/>
<path d="M383.143 666.662V643.001H427.322V649.037H393.885V651.741H419.854C424.845 651.741 428.313 654.783 428.313 659.177C428.313 663.572 424.808 666.614 419.854 666.614L383.143 666.662ZM416.108 660.626C417.062 660.626 417.606 660.119 417.606 659.274C417.606 658.429 417.062 657.922 416.108 657.922H393.885V660.626H416.108Z" fill="white"/>
<path d="M466.401 642.663C469.632 642.663 472.73 643.945 475.014 646.227C477.299 648.509 478.582 651.604 478.582 654.832C478.582 658.059 477.299 661.154 475.014 663.436C472.73 665.718 469.632 667 466.401 667H441.593C438.362 667 435.264 665.718 432.98 663.436C430.695 661.154 429.412 658.059 429.412 654.832C429.412 651.604 430.695 648.509 432.98 646.227C435.264 643.945 438.362 642.663 441.593 642.663H466.401ZM443.804 651.452C442.907 651.452 442.046 651.808 441.412 652.442C440.777 653.075 440.421 653.935 440.421 654.832C440.421 655.728 440.777 656.588 441.412 657.222C442.046 657.856 442.907 658.212 443.804 658.212H464.19C465.087 658.212 465.948 657.856 466.582 657.222C467.217 656.588 467.573 655.728 467.573 654.832C467.573 653.935 467.217 653.075 466.582 652.442C465.948 651.808 465.087 651.452 464.19 651.452H443.804Z" fill="white"/>
<path d="M480.335 666.662V643.001H516.019C518.532 643.001 520.941 643.998 522.718 645.773C524.495 647.548 525.493 649.955 525.493 652.466C525.493 654.976 524.495 657.383 522.718 659.158C520.941 660.933 518.532 661.93 516.019 661.93H491.041V666.662H480.335ZM491.041 651.113V653.818H513.264C514.219 653.818 514.762 653.311 514.762 652.466C514.762 651.62 514.219 651.113 513.264 651.113H491.041Z" fill="white"/>
<path d="M551.461 643.001L570.723 666.662H558.639L555.884 663.282H534.943L532.187 666.662H520.043L539.377 643.001H551.461ZM540.453 656.522H550.374L545.407 650.486L540.453 656.522Z" fill="white"/>
<path d="M580.463 651.113H563.243V643.001H608.45V651.113H591.181V666.662H580.463V651.113Z" fill="white"/>
<path d="M646.502 642.663C649.733 642.663 652.831 643.945 655.115 646.227C657.399 648.509 658.683 651.604 658.683 654.832C658.683 658.059 657.399 661.154 655.115 663.436C652.831 665.718 649.733 667 646.502 667H621.693C618.463 667 615.365 665.718 613.08 663.436C610.796 661.154 609.513 658.059 609.513 654.832C609.513 651.604 610.796 648.509 613.08 646.227C615.365 643.945 618.463 642.663 621.693 642.663H646.502ZM623.965 651.452C623.068 651.452 622.207 651.808 621.573 652.442C620.938 653.075 620.582 653.935 620.582 654.832C620.582 655.728 620.938 656.588 621.573 657.222C622.207 657.856 623.068 658.212 623.965 658.212H644.351C645.248 658.212 646.109 657.856 646.744 657.222C647.378 656.588 647.734 655.728 647.734 654.832C647.734 653.935 647.378 653.075 646.744 652.442C646.109 651.808 645.248 651.452 644.351 651.452H623.965Z" fill="white"/>
<path d="M660.436 666.662V643.001H696.12C698.632 643.001 701.042 643.998 702.819 645.773C704.595 647.548 705.594 649.955 705.594 652.466C705.594 654.976 704.595 657.383 702.819 659.158C701.042 660.933 698.632 661.93 696.12 661.93H671.178V666.662H660.436ZM671.178 651.113V653.818H693.401C694.355 653.818 694.899 653.311 694.899 652.466C694.899 651.62 694.355 651.113 693.401 651.113H671.178Z" fill="white"/>
<path d="M752.528 666.662H741.785V653.142L718.064 666.662H707.346V643.001H718.076V656.522L741.797 643.001H752.54L752.528 666.662Z" fill="white"/>
<path d="M765.977 650.437C765.977 651.282 766.52 651.789 767.475 651.789H788.683V643.001H799.425V659.902C799.425 664.429 797.178 666.662 792.622 666.662H757.965V660.626H787.317C787.501 660.652 787.689 660.635 787.866 660.576C788.042 660.517 788.203 660.419 788.335 660.288C788.467 660.157 788.567 659.997 788.628 659.822C788.688 659.646 788.707 659.458 788.683 659.274V657.922H764.756C758.811 657.922 755.246 655.218 755.246 650.486V643.049H765.977V650.437Z" fill="white"/>
<path d="M802.133 643.001H816.477L829.696 659.226L842.916 643.001H857.804V666.662H847.061V652.731L835.751 666.626H823.667L812.888 653.407V666.626H802.145L802.133 643.001Z" fill="white"/>
</g>
<defs>
<clipPath id="clip0_234_32639">
<rect width="719" height="327" fill="white" transform="translate(140 340)"/>
</clipPath>
</defs>
</svg>
