<svg width="158" height="46" viewBox="0 0 158 46" fill="none" xmlns="http://www.w3.org/2000/svg">
<path d="M54.0598 33.1553C54.0635 33.0343 54.0654 32.9129 54.0654 32.7911C54.0654 25.869 48.0008 20.2576 40.4379 20.2576C32.875 20.2576 26.7441 25.869 26.7441 32.7911C26.7441 32.9129 26.746 33.0343 26.7498 33.1553H27.9321C27.9209 33.0343 27.9152 32.9129 27.9152 32.7911C27.9152 28.961 33.5226 25.6069 40.4046 25.6069C47.2866 25.6069 52.8728 28.961 52.8728 32.7911C52.8728 32.9129 52.8672 33.0343 52.856 33.1553H54.0598Z" fill="white"/>
<path d="M26.7498 33.1553C26.9605 39.9088 32.9749 45.27 40.4046 45.27C47.8342 45.27 53.8491 39.9088 54.0598 33.1553H52.856C52.516 36.8378 47.0675 40.0387 40.4046 40.0387C33.7416 40.0387 28.2734 36.8378 27.9321 33.1553H26.7498Z" fill="white"/>
<path d="M142.173 20.2576H133.432C133.432 39.4498 139.827 45.27 157.963 45.27V36.4473C139.928 45.27 132.805 39.4979 142.173 20.2576Z" fill="white"/>
<path d="M82.0618 20.2576V29.2568C86.2063 26.3326 90.2011 24.7402 94.3304 24.3373C91.0368 30.1342 89.4558 35.9285 89.0295 45.27H97.7612C93.8634 38.9716 94.6251 29.9265 96.8945 24.2384C100.101 24.2993 103.42 25.0375 106.978 26.3894V20.2576H82.0618Z" fill="white"/>
<path d="M79.7441 29.378L79.7443 20.2759C61.6636 19.9225 55.4812 24.7186 55.6074 31.4428C55.6074 31.4428 55.7699 33.752 57.275 33.2098C58.7801 32.6676 76.7161 29.3223 77.2427 34.1375C77.7693 38.9528 61.4877 41.8684 55.6074 36.5673V45.27C73.7758 45.27 80.0074 40.8966 79.7441 35.1536C79.4808 29.4106 66.7727 28.7957 57.9333 31.4428C59.557 26.3183 75.8384 25.0045 79.7441 29.378Z" fill="white"/>
<path d="M8.64257 20.2576H2.06694C-0.716688 32.2259 -0.228578 36.2112 0.868513 43.3104C0.964714 43.933 1.06524 44.5834 1.16822 45.27H8.32145C8.14083 44.898 7.95605 44.499 7.78764 44.157C6.35847 41.2549 4.36682 38.6579 4.16847 35.0246C10.1898 35.9652 16.2125 35.4041 20.623 35.0246C20.4246 38.6579 18.5578 41.2549 17.1286 44.157C16.9602 44.499 16.7273 44.898 16.5467 45.27H23.748C23.851 44.5834 23.9515 43.933 24.0477 43.3104C25.1448 36.2112 25.6329 32.2259 22.8493 20.2576H16.2737C17.9641 23.3287 20.5305 26.0471 20.623 31.0627C16.2048 32.1276 10.3557 33.2032 4.16847 32.763C4.26095 27.7474 6.95216 23.3287 8.64257 20.2576Z" fill="white"/>
<path fill-rule="evenodd" clip-rule="evenodd" d="M131.123 20.2576V29.0066C124.136 23.836 109.45 26.5318 110.607 31.6583C112.12 28.8299 131.123 28.1363 131.123 32.6305C131.123 37.1246 111.586 36.7406 110.429 33.7354C109.45 38.6409 122.356 41.3367 131.123 36.8289V45.2699C107.183 45.3178 103.817 33.7354 109.183 32.8073C103.871 30.5943 107.279 20.2576 131.123 20.2576ZM111.898 32.6305C111.898 30.3766 129.252 30.5534 129.252 32.6305C129.252 34.7076 111.898 34.8843 111.898 32.6305Z" fill="white"/>
<path d="M54.8848 6.55316C54.9174 14.0835 55.7525 16.9075 65.2283 16.8966C55.7525 16.9075 54.897 19.7529 54.8848 27.2401C54.8848 19.7529 53.7279 16.8966 44.5413 16.8966C53.7279 16.8966 54.9175 14.1011 54.8848 6.55316Z" fill="#FF314A"/>
<path d="M54.8848 6.55316C54.9174 14.0835 55.7525 16.9075 65.2283 16.8966M54.8848 6.55316C54.9175 14.1011 53.7279 16.8966 44.5413 16.8966M54.8848 6.55316V1M65.2283 16.8966C55.7525 16.9075 54.897 19.7529 54.8848 27.2401M65.2283 16.8966L70.8501 16.9075M54.8848 27.2401C54.8848 19.7529 53.7279 16.8966 44.5413 16.8966M54.8848 27.2401L54.8848 32.815M44.5413 16.8966L39.0352 16.9075" stroke="#FF314A" stroke-width="2" stroke-linecap="square" stroke-linejoin="round"/>
<path d="M46.6074 21.8086C46.6165 23.9141 46.85 24.7037 49.4995 24.7006C46.85 24.7037 46.6108 25.4993 46.6074 27.5927C46.6074 25.4993 46.2839 24.7006 43.7153 24.7006C46.2839 24.7006 46.6166 23.919 46.6074 21.8086Z" fill="#FF314A"/>
<path d="M46.6074 21.8086C46.6165 23.9141 46.85 24.7037 49.4995 24.7006M46.6074 21.8086C46.6166 23.919 46.2839 24.7006 43.7153 24.7006M46.6074 21.8086V20.2559M49.4995 24.7006C46.85 24.7037 46.6108 25.4993 46.6074 27.5927M49.4995 24.7006L51.0714 24.7037M46.6074 27.5927C46.6074 25.4993 46.2839 24.7006 43.7153 24.7006M46.6074 27.5927L46.6074 29.1515M43.7153 24.7006L42.1758 24.7037" stroke="#FF314A" stroke-width="1.5" stroke-linecap="square" stroke-linejoin="round"/>
<path d="M109.132 14.2432C109.144 17.0175 109.452 18.0579 112.943 18.0539C109.452 18.0579 109.137 19.1062 109.132 21.8647C109.132 19.1062 108.706 18.0539 105.322 18.0539C108.706 18.0539 109.144 17.024 109.132 14.2432Z" fill="#FF314A"/>
<path d="M109.132 14.2432C109.144 17.0175 109.452 18.0579 112.943 18.0539M109.132 14.2432C109.144 17.024 108.706 18.0539 105.322 18.0539M109.132 14.2432V12.1973M112.943 18.0539C109.452 18.0579 109.137 19.1062 109.132 21.8647M112.943 18.0539L115.014 18.0579M109.132 21.8647C109.132 19.1062 108.706 18.0539 105.322 18.0539M109.132 21.8647L109.132 23.9186M105.322 18.0539L103.293 18.0579" stroke="#FF314A" stroke-width="1.5" stroke-linecap="square" stroke-linejoin="round"/>
<path d="M104.907 11.9439C104.913 13.1577 105.047 13.6129 106.574 13.6111C105.047 13.6129 104.909 14.0715 104.907 15.2783C104.907 14.0715 104.721 13.6111 103.24 13.6111C104.721 13.6111 104.913 13.1605 104.907 11.9439Z" fill="#FF314A"/>
<path d="M104.907 11.9439C104.913 13.1577 105.047 13.6129 106.574 13.6111M104.907 11.9439C104.913 13.1605 104.721 13.6111 103.24 13.6111M104.907 11.9439V11.0488M106.574 13.6111C105.047 13.6129 104.909 14.0715 104.907 15.2783M106.574 13.6111L107.481 13.6129M104.907 15.2783C104.907 14.0715 104.721 13.6111 103.24 13.6111M104.907 15.2783L104.907 16.1769M103.24 13.6111L102.353 13.6129" stroke="#FF314A" stroke-width="1.5" stroke-linecap="square" stroke-linejoin="round"/>
</svg>
