<svg width="397" height="145" viewBox="0 0 397 145" fill="none" xmlns="http://www.w3.org/2000/svg">
    <g clip-path="url(#clip0_86_39)">
        <path d="M394.23 54.5C390.25 39.0361 381.237 25.3363 368.612 15.5594C355.987 5.78245 340.468 0.484377 324.5 0.500035H180.5L162.5 13.36L155.3 18.5L144.5 26.21L130.1 36.5L126.5 39.07L121.5 42.66L108.5 51.93L104.9 54.5L90.5 64.79L79.7 72.5L72.5 77.64L63.5 84.07V0.500035H0.5V144.5H63.5L72.5 137.95L88.25 126.5L90.5 124.86L108.5 111.77L113 108.5L121.47 102.34L126.47 105.93L130.07 108.5L144.47 118.79L155.27 126.5L162.47 131.64L180.47 144.5H324.47C342.009 144.532 358.949 138.127 372.08 126.5C382.897 116.99 390.604 104.447 394.2 90.5C397.227 78.6909 397.227 66.3092 394.2 54.5H394.23ZM324.5 90.5H187.25L180.5 85.59L162.5 72.5L180.5 59.41L187.25 54.5H324.5C329.274 54.5 333.852 56.3965 337.228 59.7721C340.604 63.1478 342.5 67.7261 342.5 72.5C342.5 77.2739 340.604 81.8523 337.228 85.228C333.852 88.6036 329.274 90.5 324.5 90.5Z" fill="black" stroke="black" stroke-miterlimit="10"/>
    </g>
</svg>
